<?xml version="1.0" encoding="UTF-8" standalone="no"?>
<!-- Created with Inkscape (http://www.inkscape.org/) -->

<svg
   width="32"
   height="32"
   viewBox="0 0 32 32"
   version="1.1"
   id="svg1"
   inkscape:version="1.3.2 (091e20e, 2023-11-25, custom)"
   sodipodi:docname="dounatsu.svg"
   xmlns:inkscape="http://www.inkscape.org/namespaces/inkscape"
   xmlns:sodipodi="http://sodipodi.sourceforge.net/DTD/sodipodi-0.dtd"
   xmlns="http://www.w3.org/2000/svg"
   xmlns:svg="http://www.w3.org/2000/svg">
  <sodipodi:namedview
     id="namedview1"
     pagecolor="#caffff"
     bordercolor="#000000"
     borderopacity="0.25"
     inkscape:showpageshadow="2"
     inkscape:pageopacity="0.0"
     inkscape:pagecheckerboard="0"
     inkscape:deskcolor="#d1d1d1"
     inkscape:document-units="px"
     inkscape:zoom="22.627417"
     inkscape:cx="17.213631"
     inkscape:cy="16.020388"
     inkscape:window-width="1920"
     inkscape:window-height="1017"
     inkscape:window-x="-8"
     inkscape:window-y="-8"
     inkscape:window-maximized="1"
     inkscape:current-layer="layer1" />
  <defs
     id="defs1">
    <inkscape:path-effect
       effect="powerstroke"
       id="path-effect17"
       is_visible="true"
       lpeversion="1.3"
       scale_width="1"
       interpolator_type="CentripetalCatmullRom"
       interpolator_beta="0.75"
       start_linecap_type="round"
       end_linecap_type="round"
       offset_points="2.5991364,0.15467961"
       linejoin_type="spiro"
       miter_limit="4"
       not_jump="true"
       sort_points="true"
       message="既存のノードを &lt;b&gt;Ctrl + クリック&lt;/b&gt;して移動します" />
    <inkscape:path-effect
       effect="powerstroke"
       id="path-effect16"
       is_visible="true"
       lpeversion="1.3"
       scale_width="1"
       interpolator_type="CentripetalCatmullRom"
       interpolator_beta="0.75"
       start_linecap_type="round"
       end_linecap_type="round"
       offset_points="1.7242566,0.15467961"
       linejoin_type="spiro"
       miter_limit="4"
       not_jump="true"
       sort_points="true"
       message="既存のノードを &lt;b&gt;Ctrl + クリック&lt;/b&gt;して移動します" />
    <inkscape:path-effect
       effect="powerstroke"
       id="path-effect15"
       is_visible="true"
       lpeversion="1.3"
       scale_width="1"
       interpolator_type="CentripetalCatmullRom"
       interpolator_beta="0.75"
       start_linecap_type="round"
       end_linecap_type="round"
       offset_points="1.9567571,0.15467961"
       linejoin_type="spiro"
       miter_limit="4"
       not_jump="true"
       sort_points="true"
       message="既存のノードを &lt;b&gt;Ctrl + クリック&lt;/b&gt;して移動します" />
    <inkscape:path-effect
       effect="powerstroke"
       id="path-effect14"
       is_visible="true"
       lpeversion="1.3"
       scale_width="1"
       interpolator_type="CentripetalCatmullRom"
       interpolator_beta="0.75"
       start_linecap_type="round"
       end_linecap_type="round"
       offset_points="2.0788992,0.15467961"
       linejoin_type="spiro"
       miter_limit="4"
       not_jump="true"
       sort_points="true"
       message="既存のノードを &lt;b&gt;Ctrl + クリック&lt;/b&gt;して移動します" />
    <inkscape:path-effect
       effect="powerstroke"
       id="path-effect13"
       is_visible="true"
       lpeversion="1.3"
       scale_width="1"
       interpolator_type="CentripetalCatmullRom"
       interpolator_beta="0.75"
       start_linecap_type="round"
       end_linecap_type="round"
       offset_points="0.5,0.20623948"
       linejoin_type="spiro"
       miter_limit="4"
       not_jump="true"
       sort_points="true"
       message="既存のノードを &lt;b&gt;Ctrl + クリック&lt;/b&gt;して移動します" />
    <inkscape:path-effect
       effect="powerstroke"
       id="path-effect12"
       is_visible="true"
       lpeversion="1.3"
       scale_width="1"
       interpolator_type="CentripetalCatmullRom"
       interpolator_beta="0.75"
       start_linecap_type="round"
       end_linecap_type="round"
       offset_points="1.6123362,0.15467961"
       linejoin_type="spiro"
       miter_limit="4"
       not_jump="true"
       sort_points="true"
       message="既存のノードを &lt;b&gt;Ctrl + クリック&lt;/b&gt;して移動します" />
    <inkscape:path-effect
       effect="powerstroke"
       id="path-effect11"
       is_visible="true"
       lpeversion="1.3"
       scale_width="1"
       interpolator_type="CentripetalCatmullRom"
       interpolator_beta="0.75"
       start_linecap_type="round"
       end_linecap_type="round"
       offset_points="0.51518764,0.66291261"
       linejoin_type="spiro"
       miter_limit="4"
       not_jump="true"
       sort_points="true"
       message="既存のノードを &lt;b&gt;Ctrl + クリック&lt;/b&gt;して移動します" />
  </defs>
  <g
     inkscape:label="Layer 1"
     inkscape:groupmode="layer"
     id="layer1">
    <path
       id="path1"
       style="display:inline;fill:#3c64a0;fill-opacity:1;stroke-width:1.16812"
       inkscape:label="枠"
       d="M 15.935547 3.5 A 12.5 12.5 0 0 0 3.5 16.042969 A 12.5 12.5 0 0 0 16.021484 28.5 A 12.5 12.5 0 0 0 28.5 16 L 28.5 15.912109 A 12.5 12.5 0 0 0 15.935547 3.5 z M 15.939453 4.5 A 11.5 11.5 0 0 1 27.5 15.919922 L 27.5 16 A 11.5 11.5 0 0 1 16.019531 27.5 A 11.5 11.5 0 0 1 4.5 16.041016 A 11.5 11.5 0 0 1 15.939453 4.5 z " />
    <path
       id="path1-3-3"
       style="display:inline;fill:#fffff0;fill-opacity:1;stroke-width:1.07468"
       inkscape:label="中白"
       d="M 15.939453 4.5 A 11.5 11.5 0 0 0 4.5 16.041016 A 11.5 11.5 0 0 0 16.019531 27.5 A 11.5 11.5 0 0 0 27.5 16 L 27.5 15.919922 A 11.5 11.5 0 0 0 15.939453 4.5 z M 16 12.300781 A 4 4 0 0 1 20 16.300781 A 4 4 0 0 1 16 20.300781 A 4 4 0 0 1 12 16.300781 A 4 4 0 0 1 16 12.300781 z " />
    <path
       id="path17"
       style="display:inline;fill:#3c64a0;fill-opacity:1;stroke-width:1.00157"
       inkscape:label="なみなみ"
       d="M 15.9375,4 A 11.749962,11.764766 0 0 0 4.25,15.806641 11.749962,11.764766 0 0 0 4.3671875,17.25 L 4.0664062,17.19141 c 0,0 0.2198315,3.976867 3.84375,3.402344 3.6239188,-0.574523 4.5973518,1.194205 5.1718748,2.431641 0.574525,1.237434 3.26904,2.076819 5.611328,0.574218 2.34229,-1.5026 3.005174,-1.944237 4.861329,-0.574218 1.856153,1.370017 3.226562,-1.458985 3.226562,-1.458985 L 26.244141,21.462891 A 11.749962,11.764766 0 0 0 27.75,15.765625 v -0.08203 A 11.749962,11.764766 0 0 0 15.9375,4 Z M 16,12.300781 a 4,4 0 0 1 4,4 4,4 0 0 1 -4,4 4,4 0 0 1 -4,-4 4,4 0 0 1 4,-4 z" />
    <path
       id="rect25"
       style="display:inline;fill:#fffff0;stroke-width:1.35755"
       inkscape:label="めも"
       d="m 14.896484,6.8945312 c -0.369182,0 -0.666015,0.2968325 -0.666015,0.6660157 V 12.720703 A 4,4 0 0 1 16,12.300781 4,4 0 0 1 18.878906,13.523438 H 23.6875 c 0.195869,0 0.353516,0.157647 0.353516,0.353515 0,0.195869 -0.157647,0.353516 -0.353516,0.353516 h -4.263672 a 4,4 0 0 1 0.542969,1.5625 H 23.6875 c 0.195869,0 0.353516,0.157649 0.353516,0.353515 0,0.195869 -0.157647,0.353516 -0.353516,0.353516 h -3.701172 a 4,4 0 0 1 -0.402344,1.5625 H 23.6875 c 0.195869,0 0.353516,0.157647 0.353516,0.353516 0,0.195866 -0.157647,0.353515 -0.353516,0.353515 H 19.136719 A 4,4 0 0 1 16,20.300781 4,4 0 0 1 14.230469,19.880859 v 0.3125 c 0,0.369184 0.296833,0.666016 0.666015,0.666016 h 9.31836 c 0.369182,0 0.666015,-0.296832 0.666015,-0.666016 V 7.5605469 c 0,-0.3691832 -0.296833,-0.6660156 -0.666015,-0.6660157 z m 0.527344,2.0898438 h 6.275391 c 0.195869,0 0.353515,0.1576476 0.353515,0.3535156 0,0.195868 -0.157646,0.3535156 -0.353515,0.3535156 h -6.275391 c -0.195869,0 -0.353516,-0.1576476 -0.353516,-0.3535156 1e-6,-0.195868 0.157647,-0.3535156 0.353516,-0.3535156 z m 0,2.269531 h 6.275391 c 0.195869,0 0.353515,0.157648 0.353515,0.353516 0,0.195868 -0.157646,0.353515 -0.353515,0.353516 h -6.275391 c -0.195869,0 -0.353516,-0.157648 -0.353516,-0.353516 1e-6,-0.195868 0.157647,-0.353516 0.353516,-0.353516 z" />
  </g>
</svg>
